
<svg width="147" height="82" viewBox="0 0 147 82" fill="none" xmlns="http://www.w3.org/2000/svg">
<mask id="mask0_33_19" style="mask-type:alpha" maskUnits="userSpaceOnUse" x="0" y="0" width="147" height="82">
<path d="M0 0H147V82H0V0Z" fill="#D9D9D9"/>
</mask>
<g mask="url(#mask0_33_19)">
<path d="M242.5 82C242.5 103.428 229.363 123.016 207.733 137.317C186.114 151.611 156.161 160.5 123 160.5C89.8391 160.5 59.8859 151.611 38.2674 137.317C16.6371 123.016 3.5 103.428 3.5 82C3.5 60.572 16.6371 40.9837 38.2674 26.6827C59.8859 12.3894 89.8391 3.5 123 3.5C156.161 3.5 186.114 12.3894 207.733 26.6827C229.363 40.9837 242.5 60.572 242.5 82Z" stroke="#1D1F29" stroke-width="3"/>
<path d="M293.5 89C293.5 110.986 280.133 131.074 258.142 145.735C236.162 160.388 205.711 169.5 172 169.5C138.289 169.5 107.838 160.388 85.8579 145.735C63.8675 131.074 50.5 110.986 50.5 89C50.5 67.0139 63.8675 46.9256 85.8579 32.2653C107.838 17.612 138.289 8.5 172 8.5C205.711 8.5 236.162 17.612 258.142 32.2653C280.133 46.9256 293.5 67.0139 293.5 89Z" stroke="#1D1F29" stroke-width="3"/>
<path d="M267.5 94C267.5 138.346 228.443 174.5 180 174.5C131.557 174.5 92.5 138.346 92.5 94C92.5 49.6544 131.557 13.5 180 13.5C228.443 13.5 267.5 49.6544 267.5 94Z" stroke="#1D1F29" stroke-width="3"/>
</g>
</svg>
