<svg width="726" height="708" viewBox="0 0 726 708" fill="none" xmlns="http://www.w3.org/2000/svg">
<mask id="mask0_395_4" style="mask-type:alpha" maskUnits="userSpaceOnUse" x="8" y="0" width="718" height="708">
<path d="M8 0H726V708H8V0Z" fill="#D9D9D9"/>
</mask>
<g mask="url(#mask0_395_4)">
<path d="M507 367.647C507 444.766 450.391 515.011 357.925 566.092C265.53 617.134 137.75 648.766 -3.5 648.766C-144.75 648.766 -272.53 617.134 -364.925 566.092C-457.391 515.011 -514 444.766 -514 367.647C-514 290.528 -457.391 220.283 -364.925 169.202C-272.53 118.16 -144.75 86.5278 -3.5 86.5278C137.75 86.5278 265.53 118.16 357.925 169.202C450.391 220.283 507 290.528 507 367.647Z" stroke="#383356" stroke-opacity="0.51" stroke-width="4"/>
<path d="M723 354C723 449.501 665.213 536.202 571.29 599.119C477.379 662.026 347.528 701 204 701C60.4715 701 -69.379 662.026 -163.29 599.119C-257.213 536.202 -315 449.501 -315 354C-315 258.499 -257.213 171.798 -163.29 108.881C-69.379 45.974 60.4715 7 204 7C347.528 7 477.379 45.974 571.29 108.881C665.213 171.798 723 258.499 723 354Z" stroke="#383356" stroke-opacity="0.51" stroke-width="4"/>
<path d="M288 378.251C288 452.249 222.647 519.882 115.479 569.131C8.48413 618.301 -139.469 648.766 -303 648.766C-466.531 648.766 -614.484 618.301 -721.479 569.131C-828.647 519.882 -894 452.249 -894 378.251C-894 304.253 -828.647 236.62 -721.479 187.371C-614.484 138.201 -466.531 107.735 -303 107.735C-139.469 107.735 8.48413 138.201 115.479 187.371C222.647 236.62 288 304.253 288 378.251Z" stroke="#383356" stroke-opacity="0.51" stroke-width="4"/>
</g>
<ellipse cx="7.5" cy="90.5" rx="7.5" ry="61.5" fill="#2B2940"/>
<ellipse cx="8" cy="641" rx="7" ry="41" fill="#2B2940"/>
</svg>
