<svg width="726" height="708" viewBox="0 0 726 708" fill="none" xmlns="http://www.w3.org/2000/svg">
<mask id="mask0_395_4" style="mask-type:alpha" maskUnits="userSpaceOnUse" x="0" y="0" width="718" height="708">
<path d="M718 0H-4.76837e-06V708H718V0Z" fill="#D9D9D9"/>
</mask>
<g mask="url(#mask0_395_4)">
<path d="M219 367.647C219 444.766 275.609 515.011 368.075 566.092C460.47 617.134 588.25 648.766 729.5 648.766C870.75 648.766 998.53 617.134 1090.93 566.092C1183.39 515.011 1240 444.766 1240 367.647C1240 290.528 1183.39 220.283 1090.93 169.202C998.53 118.16 870.75 86.5278 729.5 86.5278C588.25 86.5278 460.47 118.16 368.075 169.202C275.609 220.283 219 290.528 219 367.647Z" stroke="#383356" stroke-opacity="0.51" stroke-width="4"/>
<path d="M3 354C3 449.501 60.7868 536.202 154.71 599.119C248.621 662.026 378.472 701 522 701C665.528 701 795.379 662.026 889.29 599.119C983.213 536.202 1041 449.501 1041 354C1041 258.499 983.213 171.798 889.29 108.881C795.379 45.974 665.528 7 522 7C378.472 7 248.621 45.974 154.71 108.881C60.7868 171.798 3 258.499 3 354Z" stroke="#383356" stroke-opacity="0.51" stroke-width="4"/>
<path d="M438 378.251C438 452.249 503.353 519.882 610.521 569.131C717.516 618.301 865.469 648.766 1029 648.766C1192.53 648.766 1340.48 618.301 1447.48 569.131C1554.65 519.882 1620 452.249 1620 378.251C1620 304.253 1554.65 236.62 1447.48 187.371C1340.48 138.201 1192.53 107.735 1029 107.735C865.469 107.735 717.516 138.201 610.521 187.371C503.353 236.62 438 304.253 438 378.251Z" stroke="#383356" stroke-opacity="0.51" stroke-width="4"/>
</g>
<ellipse cx="7.5" cy="61.5" rx="7.5" ry="61.5" transform="matrix(-1 0 0 1 726 29)" fill="#2B2940"/>
<ellipse cx="7" cy="41" rx="7" ry="41" transform="matrix(-1 0 0 1 725 600)" fill="#2B2940"/>
</svg>
