<svg width="75" height="69" viewBox="0 0 75 69" fill="none" xmlns="http://www.w3.org/2000/svg">
<g clip-path="url(#clip0_3_9)">
<path d="M59.8126 37.2025C59.9376 36.34 60.0001 35.4488 60.0001 34.5C60.0001 33.58 59.9376 32.66 59.7813 31.7975L66.1251 27.255C66.6876 26.8525 66.8439 26.0763 66.5001 25.5013L60.5001 15.9563C60.1251 15.3238 59.3439 15.1225 58.6564 15.3238L51.1876 18.0838C49.6251 16.9913 47.9688 16.0713 46.1251 15.3813L45.0001 8.07877C44.8751 7.38877 44.2501 6.90002 43.5001 6.90002H31.5001C30.7501 6.90002 30.1563 7.38877 30.0313 8.07877L28.9063 15.3813C27.0626 16.0713 25.3751 17.02 23.8438 18.0838L16.3751 15.3238C15.6876 15.0938 14.9063 15.3238 14.5313 15.9563L8.5626 25.5013C8.1876 26.105 8.3126 26.8525 8.9376 27.255L15.2813 31.7975C15.1251 32.66 15.0001 33.6088 15.0001 34.5C15.0001 35.3913 15.0626 36.34 15.2188 37.2025L8.8751 41.745C8.3126 42.1475 8.15635 42.9238 8.5001 43.4988L14.5001 53.0438C14.8751 53.6763 15.6563 53.8775 16.3438 53.6763L23.8126 50.9163C25.3751 52.0088 27.0313 52.9288 28.8751 53.6188L30.0001 60.9213C30.1563 61.6113 30.7501 62.1 31.5001 62.1H43.5001C44.2501 62.1 44.8751 61.6113 44.9688 60.9213L46.0938 53.6188C47.9376 52.9288 49.6251 52.0088 51.1564 50.9163L58.6251 53.6763C59.3126 53.9063 60.0939 53.6763 60.4689 53.0438L66.4689 43.4988C66.8439 42.8663 66.6876 42.1475 66.0938 41.745L59.8126 37.2025ZM37.5001 44.85C31.3126 44.85 26.2501 40.1925 26.2501 34.5C26.2501 28.8075 31.3126 24.15 37.5001 24.15C43.6876 24.15 48.7501 28.8075 48.7501 34.5C48.7501 40.1925 43.6876 44.85 37.5001 44.85Z" fill="white" fill-opacity="0.6"/>
</g>
<defs>
<clipPath id="clip0_3_9">
<rect width="75" height="69" fill="white"/>
</clipPath>
</defs>
</svg>
