<svg width="38" height="60" viewBox="0 0 38 60" fill="none" xmlns="http://www.w3.org/2000/svg">
<path d="M7.81289 19.5104H3.41289L15.6929 47.8304H19.2929L31.4529 19.5104H26.9729L24.0929 26.4704H10.6529L7.81289 19.5104ZM12.0529 29.9504H22.6529L17.3729 43.2304L12.0529 29.9504Z" fill="#713CF5"/>
<path d="M7.81289 19.5104V18.5104H8.48489L8.73878 19.1326L7.81289 19.5104ZM3.41289 19.5104L2.49543 19.9082L1.88931 18.5104H3.41289V19.5104ZM15.6929 47.8304V48.8304H15.0365L14.7754 48.2282L15.6929 47.8304ZM19.2929 47.8304L20.2118 48.2249L19.9518 48.8304H19.2929V47.8304ZM31.4529 19.5104V18.5104H32.9706L32.3718 19.9049L31.4529 19.5104ZM26.9729 19.5104L26.0489 19.128L26.3045 18.5104H26.9729V19.5104ZM24.0929 26.4704L25.0169 26.8527L24.7613 27.4704H24.0929V26.4704ZM10.6529 26.4704V27.4704H9.98089L9.72701 26.8482L10.6529 26.4704ZM12.0529 29.9504L11.1246 30.3222L10.575 28.9504H12.0529V29.9504ZM22.6529 29.9504V28.9504H24.1266L23.5821 30.3198L22.6529 29.9504ZM17.3729 43.2304L18.3021 43.5998L17.3764 45.9282L16.4446 43.6023L17.3729 43.2304ZM7.81289 20.5104H3.41289V18.5104H7.81289V20.5104ZM4.33035 19.1125L16.6104 47.4326L14.7754 48.2282L2.49543 19.9082L4.33035 19.1125ZM15.6929 46.8304H19.2929V48.8304H15.6929V46.8304ZM18.374 47.4358L30.534 19.1158L32.3718 19.9049L20.2118 48.2249L18.374 47.4358ZM31.4529 20.5104H26.9729V18.5104H31.4529V20.5104ZM27.8969 19.8927L25.0169 26.8527L23.1689 26.088L26.0489 19.128L27.8969 19.8927ZM24.0929 27.4704H10.6529V25.4704H24.0929V27.4704ZM9.72701 26.8482L6.88701 19.8882L8.73878 19.1326L11.5788 26.0926L9.72701 26.8482ZM12.0529 28.9504H22.6529V30.9504H12.0529V28.9504ZM23.5821 30.3198L18.3021 43.5998L16.4436 42.8609L21.7236 29.5809L23.5821 30.3198ZM16.4446 43.6023L11.1246 30.3222L12.9812 29.5785L18.3012 42.8585L16.4446 43.6023Z" fill="#2B2940"/>
<path d="M24.8 17.52C23.9467 16.5867 22.8533 15.84 21.52 15.28C20.2133 14.72 18.7467 14.44 17.12 14.44C15.4667 14.44 13.9733 14.7467 12.64 15.36C11.3067 15.9467 10.1733 16.76 9.24 17.8C8.30667 18.84 7.58667 20.0533 7.08 21.44C6.57333 22.8 6.32 24.2533 6.32 25.8C6.32 27.3733 6.57333 28.8533 7.08 30.24C7.58667 31.6267 8.30667 32.84 9.24 33.88C10.1733 34.8933 11.32 35.6933 12.68 36.28C14.04 36.8667 15.56 37.16 17.24 37.16C18.5733 37.16 19.8 37.04 20.92 36.8C22.04 36.56 23.0133 36.2133 23.84 35.76V27.88H17.56V24.52H27.76V38.24C26.2667 39.04 24.64 39.6533 22.88 40.08C21.12 40.5067 19.2 40.72 17.12 40.72C14.9067 40.72 12.8667 40.36 11 39.64C9.16 38.8933 7.57333 37.8667 6.24 36.56C4.90667 35.2267 3.86667 33.6533 3.12 31.84C2.37333 30 2 27.9867 2 25.8C2 23.5867 2.37333 21.5733 3.12 19.76C3.89333 17.92 4.94667 16.36 6.28 15.08C7.64 13.7733 9.24 12.76 11.08 12.04C12.92 11.32 14.92 10.96 17.08 10.96C19.3467 10.96 21.36 11.2933 23.12 11.96C24.9067 12.6267 26.3867 13.52 27.56 14.64L24.8 17.52Z" fill="#713CF5"/>
<path d="M24.8 17.52L24.062 18.1948L24.7828 18.9832L25.522 18.2119L24.8 17.52ZM21.52 15.28L21.1261 16.1992L21.1328 16.202L21.52 15.28ZM12.64 15.36L13.0427 16.2753L13.0504 16.272L13.0579 16.2685L12.64 15.36ZM9.24 17.8L9.98424 18.4679L9.24 17.8ZM7.08 21.44L8.0171 21.7891L8.01927 21.7832L7.08 21.44ZM7.08 30.24L6.14074 30.5832L7.08 30.24ZM9.24 33.88L8.4957 34.548L8.50445 34.5575L9.24 33.88ZM12.68 36.28L12.2839 37.1982L12.68 36.28ZM20.92 36.8L20.7105 35.8222L20.92 36.8ZM23.84 35.76L24.3208 36.6368L24.84 36.3521V35.76H23.84ZM23.84 27.88H24.84V26.88H23.84V27.88ZM17.56 27.88H16.56V28.88H17.56V27.88ZM17.56 24.52V23.52H16.56V24.52H17.56ZM27.76 24.52H28.76V23.52H27.76V24.52ZM27.76 38.24L28.2322 39.1215L28.76 38.8387V38.24H27.76ZM22.88 40.08L22.6444 39.1082L22.88 40.08ZM11 39.64L10.624 40.5666L10.632 40.5699L10.6401 40.573L11 39.64ZM6.24 36.56L5.53286 37.2671L5.54007 37.2742L6.24 36.56ZM3.12 31.84L2.19338 32.216L2.19532 32.2207L3.12 31.84ZM3.12 19.76L2.19809 19.3725L2.19532 19.3792L3.12 19.76ZM6.28 15.08L6.97253 15.8014L6.97283 15.8011L6.28 15.08ZM11.08 12.04L10.7156 11.1088L10.7156 11.1088L11.08 12.04ZM23.12 11.96L22.7658 12.8952L22.7704 12.8969L23.12 11.96ZM27.56 14.64L28.282 15.3319L28.9753 14.6085L28.2505 13.9166L27.56 14.64ZM25.538 16.8452C24.5739 15.7908 23.3549 14.966 21.9072 14.358L21.1328 16.202C22.3518 16.714 23.3194 17.3826 24.062 18.1948L25.538 16.8452ZM21.9139 14.3609C20.4661 13.7404 18.8627 13.44 17.12 13.44V15.44C18.6307 15.44 19.9606 15.6996 21.1261 16.1991L21.9139 14.3609ZM17.12 13.44C15.3407 13.44 13.7022 13.7707 12.2221 14.4515L13.0579 16.2685C14.2445 15.7227 15.5926 15.44 17.12 15.44V13.44ZM12.2373 14.4447C10.7795 15.0861 9.52809 15.9818 8.49576 17.1321L9.98424 18.4679C10.8186 17.5382 11.8339 16.8072 13.0427 16.2753L12.2373 14.4447ZM8.49576 17.1321C7.47259 18.2722 6.68863 19.5973 6.14074 21.0968L8.01927 21.7832C8.48471 20.5093 9.14075 19.4078 9.98424 18.4679L8.49576 17.1321ZM6.14292 21.0909C5.59197 22.5697 5.32 24.142 5.32 25.8H7.32C7.32 24.3646 7.55469 23.0303 8.01708 21.7891L6.14292 21.0909ZM5.32 25.8C5.32 27.4827 5.59132 29.0795 6.14074 30.5832L8.01927 29.8968C7.55535 28.6271 7.32 27.264 7.32 25.8H5.32ZM6.14074 30.5832C6.68863 32.0827 7.47259 33.4078 8.49576 34.5479L9.98424 33.2121C9.14075 32.2722 8.48471 31.1706 8.01927 29.8968L6.14074 30.5832ZM8.50445 34.5575C9.53979 35.6816 10.8049 36.5602 12.2839 37.1982L13.0761 35.3618C11.8351 34.8264 10.8069 34.1051 9.97555 33.2025L8.50445 34.5575ZM12.2839 37.1982C13.7847 37.8456 15.442 38.16 17.24 38.16V36.16C15.678 36.16 14.2953 35.8877 13.0761 35.3618L12.2839 37.1982ZM17.24 38.16C18.6326 38.16 19.9305 38.0347 21.1295 37.7778L20.7105 35.8222C19.6695 36.0453 18.5141 36.16 17.24 36.16V38.16ZM21.1295 37.7778C22.3248 37.5217 23.3932 37.1455 24.3208 36.6368L23.3592 34.8832C22.6335 35.2811 21.7552 35.5983 20.7105 35.8222L21.1295 37.7778ZM24.84 35.76V27.88H22.84V35.76H24.84ZM23.84 26.88H17.56V28.88H23.84V26.88ZM18.56 27.88V24.52H16.56V27.88H18.56ZM17.56 25.52H27.76V23.52H17.56V25.52ZM26.76 24.52V38.24H28.76V24.52H26.76ZM27.2878 37.3585C25.8741 38.1158 24.3277 38.7001 22.6444 39.1082L23.1156 41.0518C24.9523 40.6066 26.6592 39.9642 28.2322 39.1215L27.2878 37.3585ZM22.6444 39.1082C20.9719 39.5136 19.1321 39.72 17.12 39.72V41.72C19.2679 41.72 21.2681 41.4997 23.1156 41.0518L22.6444 39.1082ZM17.12 39.72C15.0167 39.72 13.1001 39.3782 11.3599 38.707L10.6401 40.573C12.6332 41.3418 14.7967 41.72 17.12 41.72V39.72ZM11.376 38.7134C9.64901 38.0126 8.17435 37.0555 6.93993 35.8458L5.54007 37.2742C6.97232 38.6778 8.67099 39.7741 10.624 40.5666L11.376 38.7134ZM6.94711 35.8529C5.71086 34.6166 4.74313 33.1555 4.04468 31.4592L2.19532 32.2207C2.99021 34.1512 4.10247 35.8367 5.53289 37.2671L6.94711 35.8529ZM4.04661 31.464C3.3531 29.755 3 27.8708 3 25.8H1C1 28.1025 1.39357 30.245 2.19339 32.216L4.04661 31.464ZM3 25.8C3 23.7005 3.35374 21.8187 4.04468 20.1407L2.19532 19.3792C1.39292 21.3279 1 23.4728 1 25.8H3ZM4.04189 20.1475C4.76662 18.4231 5.74528 16.9795 6.97253 15.8014L5.58747 14.3586C4.14805 15.7405 3.02005 17.4169 2.19811 19.3725L4.04189 20.1475ZM6.97283 15.8011C8.23372 14.5897 9.72068 13.6457 11.4444 12.9712L10.7156 11.1088C8.75932 11.8743 7.04628 12.957 5.58717 14.3589L6.97283 15.8011ZM11.4444 12.9712C13.1579 12.3007 15.033 11.96 17.08 11.96V9.96C14.807 9.96 12.6821 10.3393 10.7156 11.1088L11.4444 12.9712ZM17.08 11.96C19.2497 11.96 21.1395 12.2791 22.7658 12.8952L23.4742 11.0248C21.5805 10.3075 19.4436 9.96 17.08 9.96V11.96ZM22.7704 12.8969C24.4521 13.5244 25.8098 14.3518 26.8695 15.3634L28.2505 13.9166C26.9635 12.6882 25.3612 11.7289 23.4696 11.0231L22.7704 12.8969ZM26.838 13.9481L24.078 16.8281L25.522 18.2119L28.282 15.3319L26.838 13.9481Z" fill="#2B2940"/>
</svg>
